<mxfile host="app.diagrams.net" agent="Mozilla/5.0 (Windows NT 10.0; Win64; x64) AppleWebKit/537.36 (KHTML, like Gecko) Chrome/135.0.0.0 Safari/537.36" version="26.2.12">
  <diagram name="Página-1" id="mCyhtbN1ugzZTYAQ9Z3v">
    <mxGraphModel dx="1044" dy="570" grid="1" gridSize="10" guides="1" tooltips="1" connect="1" arrows="1" fold="1" page="1" pageScale="1" pageWidth="1169" pageHeight="827" math="0" shadow="0">
      <root>
        <mxCell id="0" />
        <mxCell id="1" parent="0" />
        <mxCell id="uNFvFwKkntAJXNEnPU_O-1" value="" style="endArrow=none;html=1;rounded=0;entryX=0;entryY=0.5;entryDx=0;entryDy=0;" edge="1" parent="1" source="uNFvFwKkntAJXNEnPU_O-2" target="uNFvFwKkntAJXNEnPU_O-11">
          <mxGeometry width="50" height="50" relative="1" as="geometry">
            <mxPoint x="510" y="320" as="sourcePoint" />
            <mxPoint x="530" y="190" as="targetPoint" />
          </mxGeometry>
        </mxCell>
        <mxCell id="uNFvFwKkntAJXNEnPU_O-2" value="Usuário" style="shape=umlActor;verticalLabelPosition=bottom;verticalAlign=top;html=1;" vertex="1" parent="1">
          <mxGeometry x="140" y="170" width="30" height="60" as="geometry" />
        </mxCell>
        <mxCell id="uNFvFwKkntAJXNEnPU_O-8" value="Arduíno" style="shape=umlActor;verticalLabelPosition=bottom;verticalAlign=top;html=1;" vertex="1" parent="1">
          <mxGeometry x="790" y="85" width="30" height="60" as="geometry" />
        </mxCell>
        <mxCell id="uNFvFwKkntAJXNEnPU_O-25" style="edgeStyle=orthogonalEdgeStyle;rounded=0;orthogonalLoop=1;jettySize=auto;html=1;" edge="1" parent="1" source="uNFvFwKkntAJXNEnPU_O-9" target="uNFvFwKkntAJXNEnPU_O-8">
          <mxGeometry relative="1" as="geometry">
            <Array as="points">
              <mxPoint x="875" y="115" />
            </Array>
          </mxGeometry>
        </mxCell>
        <mxCell id="uNFvFwKkntAJXNEnPU_O-9" value="API" style="shape=umlActor;verticalLabelPosition=bottom;verticalAlign=top;html=1;" vertex="1" parent="1">
          <mxGeometry x="860" y="315" width="30" height="60" as="geometry" />
        </mxCell>
        <mxCell id="uNFvFwKkntAJXNEnPU_O-11" value="Monitorar Dados" style="ellipse;whiteSpace=wrap;html=1;" vertex="1" parent="1">
          <mxGeometry x="270" y="70" width="140" height="70" as="geometry" />
        </mxCell>
        <mxCell id="uNFvFwKkntAJXNEnPU_O-12" value="Definir status do Arduino" style="ellipse;whiteSpace=wrap;html=1;" vertex="1" parent="1">
          <mxGeometry x="290" y="330" width="140" height="70" as="geometry" />
        </mxCell>
        <mxCell id="uNFvFwKkntAJXNEnPU_O-13" value="Selecionar a cor do status" style="ellipse;whiteSpace=wrap;html=1;" vertex="1" parent="1">
          <mxGeometry x="450" y="460" width="140" height="70" as="geometry" />
        </mxCell>
        <mxCell id="uNFvFwKkntAJXNEnPU_O-14" value="Visualizar Arduinos" style="ellipse;whiteSpace=wrap;html=1;" vertex="1" parent="1">
          <mxGeometry x="300" y="190" width="140" height="70" as="geometry" />
        </mxCell>
        <mxCell id="uNFvFwKkntAJXNEnPU_O-15" value="" style="endArrow=none;html=1;rounded=0;entryX=0;entryY=0.5;entryDx=0;entryDy=0;" edge="1" parent="1" source="uNFvFwKkntAJXNEnPU_O-2" target="uNFvFwKkntAJXNEnPU_O-12">
          <mxGeometry width="50" height="50" relative="1" as="geometry">
            <mxPoint x="180" y="198" as="sourcePoint" />
            <mxPoint x="280" y="115" as="targetPoint" />
          </mxGeometry>
        </mxCell>
        <mxCell id="uNFvFwKkntAJXNEnPU_O-16" value="" style="endArrow=none;html=1;rounded=0;entryX=0;entryY=0.5;entryDx=0;entryDy=0;exitX=0.76;exitY=0.743;exitDx=0;exitDy=0;exitPerimeter=0;" edge="1" parent="1" source="uNFvFwKkntAJXNEnPU_O-2" target="uNFvFwKkntAJXNEnPU_O-14">
          <mxGeometry width="50" height="50" relative="1" as="geometry">
            <mxPoint x="180" y="214" as="sourcePoint" />
            <mxPoint x="310" y="245" as="targetPoint" />
          </mxGeometry>
        </mxCell>
        <mxCell id="uNFvFwKkntAJXNEnPU_O-17" value="&amp;lt;&amp;lt;Extends&amp;gt;&amp;gt;" style="endArrow=block;endSize=16;endFill=0;html=1;rounded=0;exitX=1;exitY=1;exitDx=0;exitDy=0;entryX=0;entryY=0;entryDx=0;entryDy=0;" edge="1" parent="1" source="uNFvFwKkntAJXNEnPU_O-12" target="uNFvFwKkntAJXNEnPU_O-13">
          <mxGeometry width="160" relative="1" as="geometry">
            <mxPoint x="350" y="290" as="sourcePoint" />
            <mxPoint x="510" y="290" as="targetPoint" />
          </mxGeometry>
        </mxCell>
        <mxCell id="uNFvFwKkntAJXNEnPU_O-18" value="Coleta de Dados" style="ellipse;whiteSpace=wrap;html=1;" vertex="1" parent="1">
          <mxGeometry x="560" y="80" width="140" height="70" as="geometry" />
        </mxCell>
        <mxCell id="uNFvFwKkntAJXNEnPU_O-19" value="" style="endArrow=none;html=1;rounded=0;entryX=1;entryY=0.5;entryDx=0;entryDy=0;" edge="1" parent="1" source="uNFvFwKkntAJXNEnPU_O-8" target="uNFvFwKkntAJXNEnPU_O-18">
          <mxGeometry width="50" height="50" relative="1" as="geometry">
            <mxPoint x="180" y="198" as="sourcePoint" />
            <mxPoint x="280" y="115" as="targetPoint" />
          </mxGeometry>
        </mxCell>
        <mxCell id="uNFvFwKkntAJXNEnPU_O-21" value="Armazenar no banco" style="ellipse;whiteSpace=wrap;html=1;" vertex="1" parent="1">
          <mxGeometry x="640" y="410" width="140" height="70" as="geometry" />
        </mxCell>
        <mxCell id="uNFvFwKkntAJXNEnPU_O-22" value="" style="endArrow=none;html=1;rounded=0;entryX=1;entryY=0.5;entryDx=0;entryDy=0;" edge="1" parent="1" source="uNFvFwKkntAJXNEnPU_O-9" target="uNFvFwKkntAJXNEnPU_O-21">
          <mxGeometry width="50" height="50" relative="1" as="geometry">
            <mxPoint x="870" y="125" as="sourcePoint" />
            <mxPoint x="710" y="125" as="targetPoint" />
          </mxGeometry>
        </mxCell>
        <mxCell id="uNFvFwKkntAJXNEnPU_O-26" value="Sincronizar Dados" style="ellipse;whiteSpace=wrap;html=1;" vertex="1" parent="1">
          <mxGeometry x="550" y="270" width="140" height="70" as="geometry" />
        </mxCell>
        <mxCell id="uNFvFwKkntAJXNEnPU_O-27" value="" style="endArrow=none;html=1;rounded=0;entryX=1;entryY=0.5;entryDx=0;entryDy=0;" edge="1" parent="1" source="uNFvFwKkntAJXNEnPU_O-9" target="uNFvFwKkntAJXNEnPU_O-26">
          <mxGeometry width="50" height="50" relative="1" as="geometry">
            <mxPoint x="870" y="358" as="sourcePoint" />
            <mxPoint x="735" y="385" as="targetPoint" />
          </mxGeometry>
        </mxCell>
        <mxCell id="uNFvFwKkntAJXNEnPU_O-28" value="&amp;lt;&amp;lt;Include&amp;gt;&amp;gt;" style="endArrow=block;endSize=16;endFill=0;html=1;rounded=0;exitX=0;exitY=0;exitDx=0;exitDy=0;entryX=1;entryY=0.5;entryDx=0;entryDy=0;" edge="1" parent="1" source="uNFvFwKkntAJXNEnPU_O-26" target="uNFvFwKkntAJXNEnPU_O-14">
          <mxGeometry width="160" relative="1" as="geometry">
            <mxPoint x="460" y="290" as="sourcePoint" />
            <mxPoint x="620" y="290" as="targetPoint" />
          </mxGeometry>
        </mxCell>
        <mxCell id="uNFvFwKkntAJXNEnPU_O-29" value="&amp;lt;&amp;lt;Extends&amp;gt;&amp;gt;" style="endArrow=block;endSize=16;endFill=0;html=1;rounded=0;exitX=1;exitY=0.5;exitDx=0;exitDy=0;entryX=0;entryY=0.5;entryDx=0;entryDy=0;" edge="1" parent="1" source="uNFvFwKkntAJXNEnPU_O-11" target="uNFvFwKkntAJXNEnPU_O-18">
          <mxGeometry width="160" relative="1" as="geometry">
            <mxPoint x="419" y="400" as="sourcePoint" />
            <mxPoint x="481" y="480" as="targetPoint" />
          </mxGeometry>
        </mxCell>
      </root>
    </mxGraphModel>
  </diagram>
</mxfile>
